<?xml version="1.0" encoding="utf-8"?>
<!-- Generator: Adobe Illustrator 16.0.4, SVG Export Plug-In . SVG Version: 6.00 Build 0)  -->
<!DOCTYPE svg PUBLIC "-//W3C//DTD SVG 1.1//EN" "http://www.w3.org/Graphics/SVG/1.1/DTD/svg11.dtd">
<svg version="1.1" id="Layer_1" xmlns="http://www.w3.org/2000/svg" xmlns:xlink="http://www.w3.org/1999/xlink" x="0px" y="0px"
	 width="141.732px" height="141.732px" viewBox="0 0 141.732 141.732" enable-background="new 0 0 141.732 141.732"
	 xml:space="preserve">
<path fill="#5F7B56" d="M85.085,70.866c0-7.853-6.369-14.217-14.222-14.217c-7.853,0-14.22,6.364-14.22,14.217
	s6.367,14.216,14.22,14.216C78.716,85.082,85.085,78.719,85.085,70.866 M94.566,70.866c0,13.085-10.618,23.699-23.703,23.699
	c-13.085,0-23.699-10.613-23.699-23.699c0-13.085,10.613-23.698,23.699-23.698C83.949,47.167,94.566,57.781,94.566,70.866
	 M106.888,70.866c0-19.896-16.128-36.029-36.024-36.029c-19.892,0-36.02,16.133-36.02,36.029c0,19.896,16.128,36.029,36.02,36.029
	C90.759,106.895,106.888,90.761,106.888,70.866"/>
</svg>
