<?xml version="1.0" encoding="utf-8"?>
<!-- Generator: Adobe Illustrator 16.0.4, SVG Export Plug-In . SVG Version: 6.00 Build 0)  -->
<!DOCTYPE svg PUBLIC "-//W3C//DTD SVG 1.1//EN" "http://www.w3.org/Graphics/SVG/1.1/DTD/svg11.dtd">
<svg version="1.1" id="Layer_1" xmlns="http://www.w3.org/2000/svg" xmlns:xlink="http://www.w3.org/1999/xlink" x="0px" y="0px"
	 width="1000px" height="534.23px" viewBox="0 0 1000 534.23" enable-background="new 0 0 1000 534.23" xml:space="preserve">
<rect x="292.17" y="68.85" fill="#8BE0FF" width="242.638" height="135.817"/>
<rect x="534.809" y="204.668" fill="#8BE0FF" width="242.637" height="135.816"/>
<rect x="292.17" y="205.26" fill="#8BE0FF" width="242.638" height="135.817"/>
<rect x="534.808" y="68.85" fill="#007AE7" width="242.638" height="135.817"/>
<g>
	<rect x="49.53" y="68.853" fill="none" stroke="#646568" stroke-miterlimit="10" width="727.918" height="407.446"/>
	<line fill="none" stroke="#646568" stroke-miterlimit="10" x1="49.53" y1="340.482" x2="777.449" y2="340.482"/>
	<line fill="none" stroke="#646568" stroke-miterlimit="10" x1="49.53" y1="204.667" x2="777.449" y2="204.667"/>
	<line fill="none" stroke="#646568" stroke-miterlimit="10" x1="292.169" y1="68.853" x2="292.169" y2="476.302"/>
	<line fill="none" stroke="#646568" stroke-miterlimit="10" x1="534.809" y1="68.853" x2="534.809" y2="476.302"/>
</g>
<g>
	<circle fill="#FFFFFF" stroke="#646568" stroke-miterlimit="10" cx="405.811" cy="295.924" r="7.677"/>
	<text transform="matrix(1 0 0 1 400.7158 299.1533)" fill="#646568" font-family="Roboto-Medium, Roboto" font-weight="500" font-size="9.2435">2</text>
	<text transform="matrix(1 0 0 1 405.6035 299.1533)" fill="#646568" font-family="Roboto-Medium, Roboto" font-weight="500" font-size="9.2435">7</text>
</g>
<g>
	<circle fill="#FFFFFF" stroke="#646568" stroke-miterlimit="10" cx="394.125" cy="263.964" r="7.677"/>
	<text transform="matrix(1 0 0 1 389.3081 267.1934)" fill="#646568" font-family="Roboto-Medium, Roboto" font-weight="500" font-size="9.2435">1</text>
	<text transform="matrix(1 0 0 1 393.6396 267.1934)" fill="#646568" font-family="Roboto-Medium, Roboto" font-weight="500" font-size="9.2435">2</text>
</g>
<g>
	<circle fill="#FFFFFF" stroke="#646568" stroke-miterlimit="10" cx="281.668" cy="273.169" r="7.677"/>
	<text transform="matrix(1 0 0 1 276.3647 276.3984)" fill="#646568" font-family="Roboto-Medium, Roboto" font-weight="500" font-size="9.2435">23</text>
</g>
<g>
	<circle fill="#FFFFFF" stroke="#646568" stroke-miterlimit="10" cx="128.867" cy="250.631" r="7.677"/>
	<text transform="matrix(1 0 0 1 124.1406 253.8594)" fill="#646568" font-family="Roboto-Medium, Roboto" font-weight="500" font-size="9.2435">1</text>
	<text transform="matrix(1 0 0 1 128.2871 253.8594)" fill="#646568" font-family="Roboto-Medium, Roboto" font-weight="500" font-size="9.2435">9</text>
</g>
<g>
	<circle fill="#FFFFFF" stroke="#646568" stroke-miterlimit="10" cx="613.249" cy="160.096" r="7.675"/>
	<text transform="matrix(1 0 0 1 607.9453 163.3242)" fill="#646568" font-family="Roboto-Medium, Roboto" font-weight="500" font-size="9.2435">20</text>
</g>
<g>
	<circle fill="#FFFFFF" stroke="#646568" stroke-miterlimit="10" cx="693.852" cy="160.096" r="7.675"/>
	<text transform="matrix(1 0 0 1 691.2012 163.3242)" fill="#646568" font-family="Roboto-Medium, Roboto" font-weight="500" font-size="9.2435">7</text>
</g>
<g>
	<circle fill="#FFFFFF" stroke="#646568" stroke-miterlimit="10" cx="693.852" cy="205.172" r="7.675"/>
	<text transform="matrix(1 0 0 1 691.2012 208.4004)" fill="#646568" font-family="Roboto-Medium, Roboto" font-weight="500" font-size="9.2435">8</text>
</g>
<g>
	<circle fill="#FFFFFF" stroke="#646568" stroke-miterlimit="10" cx="693.852" cy="228.093" r="7.675"/>
	<text transform="matrix(1 0 0 1 691.2012 231.3213)" fill="#646568" font-family="Roboto-Medium, Roboto" font-weight="500" font-size="9.2435">9</text>
</g>
<g>
	<circle fill="#FFFFFF" stroke="#646568" stroke-miterlimit="10" cx="693.852" cy="250.631" r="7.675"/>
	<text transform="matrix(1 0 0 1 689.0352 253.8594)" fill="#646568" font-family="Roboto-Medium, Roboto" font-weight="500" font-size="9.2435">1</text>
	<text transform="matrix(1 0 0 1 693.3672 253.8594)" fill="#646568" font-family="Roboto-Medium, Roboto" font-weight="500" font-size="9.2435">6</text>
</g>
<g>
	<circle fill="#FFFFFF" stroke="#646568" stroke-miterlimit="10" cx="734.344" cy="250.631" r="7.675"/>
	<text transform="matrix(1 0 0 1 731.6934 253.8594)" fill="#646568" font-family="Roboto-Medium, Roboto" font-weight="500" font-size="9.2435">1</text>
</g>
<g>
	<circle fill="#FFFFFF" stroke="#646568" stroke-miterlimit="10" cx="452.043" cy="295.924" r="7.674"/>
	<text transform="matrix(1 0 0 1 447.2251 299.1523)" fill="#646568" font-family="Roboto-Medium, Roboto" font-weight="500" font-size="9.2435">1</text>
	<text transform="matrix(1 0 0 1 451.5571 299.1523)" fill="#646568" font-family="Roboto-Medium, Roboto" font-weight="500" font-size="9.2435">3</text>
</g>
<g>
	<circle fill="#FFFFFF" stroke="#646568" stroke-miterlimit="10" cx="613.249" cy="386.25" r="7.675"/>
	<text transform="matrix(1 0 0 1 610.5977 389.4805)" fill="#646568" font-family="Roboto-Medium, Roboto" font-weight="500" font-size="9.2435">3</text>
</g>
<g>
	<circle fill="#FFFFFF" stroke="#646568" stroke-miterlimit="10" cx="613.249" cy="408.789" r="7.675"/>
	<text transform="matrix(1 0 0 1 607.9453 412.0176)" fill="#646568" font-family="Roboto-Medium, Roboto" font-weight="500" font-size="9.2435">15</text>
</g>
<g>
	<circle fill="#FFFFFF" stroke="#646568" stroke-miterlimit="10" cx="693.852" cy="408.789" r="7.675"/>
	<text transform="matrix(1 0 0 1 688.5488 412.0176)" fill="#646568" font-family="Roboto-Medium, Roboto" font-weight="500" font-size="9.2435">26</text>
</g>
<g>
	<circle fill="#FFFFFF" stroke="#646568" stroke-miterlimit="10" cx="281.668" cy="320.153" r="7.677"/>
	<text transform="matrix(1 0 0 1 276.6426 323.3838)" fill="#646568" font-family="Roboto-Medium, Roboto" font-weight="500" font-size="9.2435">2</text>
	<text transform="matrix(1 0 0 1 281.3916 323.3838)" fill="#646568" font-family="Roboto-Medium, Roboto" font-weight="500" font-size="9.2435">1</text>
</g>
<g>
	<circle fill="#FFFFFF" stroke="#646568" stroke-miterlimit="10" cx="281.668" cy="341.374" r="7.677"/>
	<text transform="matrix(1 0 0 1 279.0171 344.6035)" fill="#646568" font-family="Roboto-Medium, Roboto" font-weight="500" font-size="9.2435">2</text>
</g>
<g>
	<circle fill="#FFFFFF" stroke="#646568" stroke-miterlimit="10" cx="451.557" cy="273.169" r="7.677"/>
	<text transform="matrix(1 0 0 1 446.8545 276.3984)" fill="#646568" font-family="Roboto-Medium, Roboto" font-weight="500" font-size="9.2435">1</text>
	<text transform="matrix(1 0 0 1 450.9551 276.3984)" fill="#646568" font-family="Roboto-Medium, Roboto" font-weight="500" font-size="9.2435">4</text>
</g>
<g>
	<circle fill="#FFFFFF" stroke="#646568" stroke-miterlimit="10" cx="378.771" cy="341.374" r="7.677"/>
	<text transform="matrix(1 0 0 1 376.1196 344.6035)" fill="#646568" font-family="Roboto-Medium, Roboto" font-weight="500" font-size="9.2435">4</text>
</g>
<g>
	<circle fill="#FFFFFF" stroke="#646568" stroke-miterlimit="10" cx="281.668" cy="364.122" r="7.678"/>
	<text transform="matrix(1 0 0 1 276.8735 367.3516)" fill="#646568" font-family="Roboto-Medium, Roboto" font-weight="500" font-size="9.2435">1</text>
	<text transform="matrix(1 0 0 1 281.1597 367.3516)" fill="#646568" font-family="Roboto-Medium, Roboto" font-weight="500" font-size="9.2435">8</text>
</g>
<g>
	<circle fill="#FFFFFF" stroke="#646568" stroke-miterlimit="10" cx="290.874" cy="453.511" r="7.677"/>
	<text transform="matrix(1 0 0 1 285.6392 456.7402)" fill="#646568" font-family="Roboto-Medium, Roboto" font-weight="500" font-size="9.2435">2</text>
	<text transform="matrix(1 0 0 1 290.8032 456.7402)" fill="#646568" font-family="Roboto-Medium, Roboto" font-weight="500" font-size="9.2435">5</text>
</g>
<g>
	<circle fill="#FFFFFF" stroke="#646568" stroke-miterlimit="10" cx="371.095" cy="453.511" r="7.677"/>
	<text transform="matrix(1 0 0 1 365.8599 456.7402)" fill="#646568" font-family="Roboto-Medium, Roboto" font-weight="500" font-size="9.2435">2</text>
	<text transform="matrix(1 0 0 1 371.0249 456.7402)" fill="#646568" font-family="Roboto-Medium, Roboto" font-weight="500" font-size="9.2435">4</text>
</g>
<g>
	<circle fill="#FFFFFF" stroke="#646568" stroke-miterlimit="10" cx="693.367" cy="320.153" r="7.677"/>
	<text transform="matrix(1 0 0 1 688.5254 323.3838)" fill="#646568" font-family="Roboto-Medium, Roboto" font-weight="500" font-size="9.2435">1</text>
	<text transform="matrix(1 0 0 1 692.9053 323.3838)" fill="#646568" font-family="Roboto-Medium, Roboto" font-weight="500" font-size="9.2435">7</text>
</g>
<g>
	<circle fill="#FFFFFF" stroke="#646568" stroke-miterlimit="10" cx="371.095" cy="273.169" r="7.677"/>
	<text transform="matrix(1 0 0 1 368.4429 276.3984)" fill="#646568" font-family="Roboto-Medium, Roboto" font-weight="500" font-size="9.2435">6</text>
</g>
<g>
	<circle fill="#FFFFFF" stroke="#646568" stroke-miterlimit="10" cx="371.095" cy="228.093" r="7.677"/>
	<text transform="matrix(1 0 0 1 368.4429 231.3223)" fill="#646568" font-family="Roboto-Medium, Roboto" font-weight="500" font-size="9.2435">5</text>
</g>
<g>
	<circle fill="#FFFFFF" stroke="#646568" stroke-miterlimit="10" cx="306.235" cy="322.792" r="7.677"/>
	<text transform="matrix(1 0 0 1 301.4858 326.0215)" fill="#646568" font-family="Roboto-Medium, Roboto" font-weight="500" font-size="9.2435">1</text>
	<text transform="matrix(1 0 0 1 305.6802 326.0215)" fill="#646568" font-family="Roboto-Medium, Roboto" font-weight="500" font-size="9.2435">0</text>
</g>
<g>
	<circle fill="#FFFFFF" stroke="#646568" stroke-miterlimit="10" cx="306.235" cy="338.145" r="7.678"/>
	<text transform="matrix(1 0 0 1 301.4858 341.373)" fill="#646568" font-family="Roboto-Medium, Roboto" font-weight="500" font-size="9.2435">1</text>
	<text transform="matrix(1 0 0 1 305.6802 341.373)" fill="#646568" font-family="Roboto-Medium, Roboto" font-weight="500" font-size="9.2435">1</text>
</g>
<g>
	<circle fill="#FFFFFF" stroke="#646568" stroke-miterlimit="10" cx="371.025" cy="250.631" r="7.678"/>
	<text transform="matrix(1 0 0 1 365.7212 253.8613)" fill="#646568" font-family="Roboto-Medium, Roboto" font-weight="500" font-size="9.2435">22</text>
</g>
<line fill="none" stroke="#646568" stroke-miterlimit="10" x1="49.53" y1="68.853" x2="49.53" y2="476.302"/>
<line fill="none" stroke="#646568" stroke-miterlimit="10" x1="777.449" y1="68.853" x2="777.449" y2="476.302"/>
<text transform="matrix(1 0 0 1 799.0312 75.792)" fill="#646568" font-family="Roboto-Regular, Roboto" font-weight="400" font-size="8.0496">Desempenho Econômico (1)</text>
<text transform="matrix(1 0 0 1 799.0312 91.0723)" fill="#646568" font-family="Roboto-Regular, Roboto" font-weight="400" font-size="8.0496">Impactos Econômicos Indiretos (2)</text>
<text transform="matrix(1 0 0 1 799.0312 106.3535)" fill="#646568" font-family="Roboto-Regular, Roboto" font-weight="400" font-size="8.0496">Gestão de Perdas de Energia (3)</text>
<text transform="matrix(1 0 0 1 799.0312 121.6338)" fill="#646568" font-family="Roboto-Regular, Roboto" font-weight="400" font-size="8.0496">Valor das Ações (4)</text>
<text transform="matrix(1 0 0 1 799.0312 136.9131)" fill="#646568" font-family="Roboto-Regular, Roboto" font-weight="400" font-size="8.0496">Tecnologia e Inovação (5)</text>
<text transform="matrix(1 0 0 1 799.0312 152.1934)" fill="#646568" font-family="Roboto-Regular, Roboto" font-weight="400" font-size="8.0496">Preço da Energia (6)</text>
<text transform="matrix(1 0 0 1 799.0312 167.4746)" fill="#646568" font-family="Roboto-Regular, Roboto" font-weight="400" font-size="8.0496">Tarifas (7)</text>
<text transform="matrix(1 0 0 1 799.0312 182.7549)" fill="#646568" font-family="Roboto-Regular, Roboto" font-weight="400" font-size="8.0496">Concessões (8)</text>
<text transform="matrix(1 0 0 1 799.0312 198.0352)" fill="#646568" font-family="Roboto-Regular, Roboto" font-weight="400" font-size="8.0496">Qualidade da Energia (9)</text>
<text transform="matrix(1 0 0 1 799.0312 213.3145)" fill="#646568" font-family="Roboto-Regular, Roboto" font-weight="400" font-size="8.0496">Geração (10)</text>
<text transform="matrix(1 0 0 1 799.0312 228.5947)" fill="#646568" font-family="Roboto-Regular, Roboto" font-weight="400" font-size="8.0496">Energia (11)</text>
<text transform="matrix(1 0 0 1 799.0312 243.875)" fill="#646568" font-family="Roboto-Regular, Roboto" font-weight="400" font-size="8.0496">Água (12)</text>
<text transform="matrix(1 0 0 1 799.0312 259.1553)" fill="#646568" font-family="Roboto-Regular, Roboto" font-weight="400" font-size="8.0496">Biodiversidade (13)</text>
<text transform="matrix(1 0 0 1 799.0312 274.4355)" fill="#646568" font-family="Roboto-Regular, Roboto" font-weight="400" font-size="8.0496">Efluentes e Resíduos (14)</text>
<text transform="matrix(1 0 0 1 799.0312 289.7148)" fill="#646568" font-family="Roboto-Regular, Roboto" font-weight="400" font-size="8.0496">Produtos e Serviços (15)</text>
<text transform="matrix(1 0 0 1 799.0312 304.9961)" fill="#646568" font-family="Roboto-Regular, Roboto" font-weight="400" font-size="8.0496">Saúde e Segurança Ocupacional (16)</text>
<text transform="matrix(1 0 0 1 799.0312 320.2754)" fill="#646568" font-family="Roboto-Regular, Roboto" font-weight="400" font-size="8.0496">Empregabilidade (17)</text>
<text transform="matrix(1 0 0 1 799.0312 335.5566)" fill="#646568" font-family="Roboto-Regular, Roboto" font-weight="400" font-size="8.0496">Associações e Acordos Coletivos (18)</text>
<text transform="matrix(1 0 0 1 799.0312 350.8359)" fill="#646568" font-family="Roboto-Regular, Roboto" font-weight="400" font-size="8.0496">Relações Trabalhistas (19)</text>
<text transform="matrix(1 0 0 1 799.0312 366.1152)" fill="#646568" font-family="Roboto-Regular, Roboto" font-weight="400" font-size="8.0496">Investimentos em Expansão (20)</text>
<text transform="matrix(1 0 0 1 799.0312 381.3965)" fill="#646568" font-family="Roboto-Regular, Roboto" font-weight="400" font-size="8.0496">Diversidade e Igualdade (21)</text>
<text transform="matrix(1 0 0 1 799.0312 396.6777)" fill="#646568" font-family="Roboto-Regular, Roboto" font-weight="400" font-size="8.0496">Mudanças Climáticas (22)</text>
<text transform="matrix(1 0 0 1 799.0312 411.957)" fill="#646568" font-family="Roboto-Regular, Roboto" font-weight="400" font-size="8.0496">Investimentos (23)</text>
<text transform="matrix(1 0 0 1 799.0312 427.2383)" fill="#646568" font-family="Roboto-Regular, Roboto" font-weight="400" font-size="8.0496">Atendimento à Legislação (24)</text>
<text transform="matrix(1 0 0 1 799.0312 442.5176)" fill="#646568" font-family="Roboto-Regular, Roboto" font-weight="400" font-size="8.0496">Concorrência Desleal (25)</text>
<text transform="matrix(1 0 0 1 799.0312 457.7969)" fill="#646568" font-family="Roboto-Regular, Roboto" font-weight="400" font-size="8.0496">Satisfação do Cliente (26)</text>
<text transform="matrix(1 0 0 1 799.0312 473.0781)" fill="#646568" font-family="Roboto-Regular, Roboto" font-weight="400" font-size="8.0496">Avaliação de Fornecedores (27)</text>
<text transform="matrix(1 0 0 1 274.9839 51.8652)" fill="#646568" font-family="Roboto-Light, Roboto" font-weight="300" font-size="25.4567">Matriz de Materialidade</text>
<text transform="matrix(1 0 0 1 326.9634 499.8955)" fill="#646568" font-family="Roboto-Regular, Roboto" font-weight="400" font-size="10.6962">IMPORTÂNCIA PARA A CEMIG</text>
<text transform="matrix(0 -1 1 0 33.3496 388.2227)" fill="#646568" font-family="Roboto-Regular, Roboto" font-weight="400" font-size="10.6962">IMPORTÂNCIA PARA OS STAKEHOLDERS</text>
</svg>
