<svg width="1065" height="500" xmlns="http://www.w3.org/2000/svg" xmlns:xlink="http://www.w3.org/1999/xlink" version="1.1" stroke="none" stroke-width="0" fill="none" class="dxc dxc-chart" style="-webkit-tap-highlight-color: rgba(0, 0, 0, 0); display: block;"><defs><clipPath id="DevExpress_5"><rect x="0" y="0" width="1065" height="500" rx="0" ry="0" fill="none" stroke="none" stroke-width="0"></rect></clipPath><clipPath id="DevExpress_6"><rect x="0" y="34" width="1065" height="466" rx="0" ry="0" fill="none" stroke="none" stroke-width="0" transform="translate(-436,-462)"></rect></clipPath><pattern id="DevExpressPattern_23" width="5" height="5" patternUnits="userSpaceOnUse"><rect x="0" y="0" width="5" height="5" rx="0" ry="0" fill="#05ae93" opacity="0.75"></rect><path stroke-width="2" stroke="#05ae93" d="M 2.5 -2.5 L -2.5 2.5M 0 5 L 5 0 M 7.5 2.5 L 2.5 7.5"></path></pattern><pattern id="DevExpressPattern_24" width="5" height="5" patternUnits="userSpaceOnUse"><rect x="0" y="0" width="5" height="5" rx="0" ry="0" fill="#05ae93" opacity="0.5"></rect><path stroke-width="2" stroke="#05ae93" d="M 2.5 -2.5 L -2.5 2.5M 0 5 L 5 0 M 7.5 2.5 L 2.5 7.5"></path></pattern><pattern id="DevExpressPattern_25" width="5" height="5" patternUnits="userSpaceOnUse"><rect x="0" y="0" width="5" height="5" rx="0" ry="0" fill="#7e8c85" opacity="0.75"></rect><path stroke-width="2" stroke="#7e8c85" d="M 2.5 -2.5 L -2.5 2.5M 0 5 L 5 0 M 7.5 2.5 L 2.5 7.5"></path></pattern><pattern id="DevExpressPattern_26" width="5" height="5" patternUnits="userSpaceOnUse"><rect x="0" y="0" width="5" height="5" rx="0" ry="0" fill="#7e8c85" opacity="0.5"></rect><path stroke-width="2" stroke="#7e8c85" d="M 2.5 -2.5 L -2.5 2.5M 0 5 L 5 0 M 7.5 2.5 L 2.5 7.5"></path></pattern><clipPath id="DevExpress_7"><rect x="24" y="36" width="1041" height="392" rx="0" ry="0" fill="none" stroke="none" stroke-width="0"></rect></clipPath><pattern id="DevExpressPattern_27" width="6" height="6" patternUnits="userSpaceOnUse"><rect x="0" y="0" width="6" height="6" rx="0" ry="0" fill="#05ae93" opacity="0.75"></rect><path stroke-width="2" stroke="#05ae93" d="M 3 -3 L -3 3M 0 6 L 6 0 M 9 3 L 3 9"></path></pattern><pattern id="DevExpressPattern_28" width="6" height="6" patternUnits="userSpaceOnUse"><rect x="0" y="0" width="6" height="6" rx="0" ry="0" fill="#05ae93" opacity="0.5"></rect><path stroke-width="2" stroke="#05ae93" d="M 3 -3 L -3 3M 0 6 L 6 0 M 9 3 L 3 9"></path></pattern><pattern id="DevExpressPattern_29" width="6" height="6" patternUnits="userSpaceOnUse"><rect x="0" y="0" width="6" height="6" rx="0" ry="0" fill="#7e8c85" opacity="0.75"></rect><path stroke-width="2" stroke="#7e8c85" d="M 3 -3 L -3 3M 0 6 L 6 0 M 9 3 L 3 9"></path></pattern><pattern id="DevExpressPattern_30" width="6" height="6" patternUnits="userSpaceOnUse"><rect x="0" y="0" width="6" height="6" rx="0" ry="0" fill="#7e8c85" opacity="0.5"></rect><path stroke-width="2" stroke="#7e8c85" d="M 3 -3 L -3 3M 0 6 L 6 0 M 9 3 L 3 9"></path></pattern></defs><g class="dxc-background"></g><g class="dxc-title"><g transform="translate(15,19)"><text x="0" y="0" text-anchor="start" style="font-family: Roboto; font-weight: 500; fill: rgb(99, 100, 103); font-size: 18px; cursor: default;"><tspan x="0" dy="0">DEC</tspan></text></g></g><g class="dxc-strips-group"><g class="dxc-h-strips" clip-path="url(#DevExpress_7)"></g><g class="dxc-v-strips" clip-path="url(#DevExpress_7)"></g></g><g class="dxc-axes-group"><g class="dxc-h-axis" clip-path="url(#DevExpress_5)"><g class="dxc-grid"></g><g class="dxc-elements"><text x="198" y="449" text-anchor="middle" transform="rotate(0,198,449)" style="fill: rgb(118, 118, 118); font-family: 'Segoe UI', 'Helvetica Neue', 'Trebuchet MS', Verdana; font-weight: 400; font-size: 12px; cursor: default;"><tspan x="198" dy="0">2012</tspan></text><text x="545" y="449" text-anchor="middle" transform="rotate(0,545,449)" style="fill: rgb(118, 118, 118); font-family: 'Segoe UI', 'Helvetica Neue', 'Trebuchet MS', Verdana; font-weight: 400; font-size: 12px; cursor: default;"><tspan x="545" dy="0">2013</tspan></text><text x="892" y="449" text-anchor="middle" transform="rotate(0,892,449)" style="fill: rgb(118, 118, 118); font-family: 'Segoe UI', 'Helvetica Neue', 'Trebuchet MS', Verdana; font-weight: 400; font-size: 12px; cursor: default;"><tspan x="892" dy="0">2014</tspan></text></g><g class="dxc-line"></g><g class="dxc-title"></g></g><g class="dxc-v-axis" clip-path="url(#DevExpress_5)"><g class="dxc-grid"><path stroke-width="1" stroke="#d3d3d3" d="M 24 428.5 L 1065 428.5"></path><path stroke-width="1" stroke="#d3d3d3" d="M 24 380.5 L 1065 380.5"></path><path stroke-width="1" stroke="#d3d3d3" d="M 24 331.5 L 1065 331.5"></path><path stroke-width="1" stroke="#d3d3d3" d="M 24 283.5 L 1065 283.5"></path><path stroke-width="1" stroke="#d3d3d3" d="M 24 234.5 L 1065 234.5"></path><path stroke-width="1" stroke="#d3d3d3" d="M 24 186.5 L 1065 186.5"></path><path stroke-width="1" stroke="#d3d3d3" d="M 24 138.5 L 1065 138.5"></path><path stroke-width="1" stroke="#d3d3d3" d="M 24 89.5 L 1065 89.5"></path><path stroke-width="1" stroke="#d3d3d3" d="M 24 41.5 L 1065 41.5"></path></g><g class="dxc-elements"><text x="14" y="432" text-anchor="end" style="fill: rgb(118, 118, 118); font-family: 'Segoe UI', 'Helvetica Neue', 'Trebuchet MS', Verdana; font-weight: 400; font-size: 12px; cursor: default;"><tspan x="14" dy="0">0</tspan></text><text x="14" y="384" text-anchor="end" style="fill: rgb(118, 118, 118); font-family: 'Segoe UI', 'Helvetica Neue', 'Trebuchet MS', Verdana; font-weight: 400; font-size: 12px; cursor: default;"><tspan x="14" dy="0">2</tspan></text><text x="14" y="335" text-anchor="end" style="fill: rgb(118, 118, 118); font-family: 'Segoe UI', 'Helvetica Neue', 'Trebuchet MS', Verdana; font-weight: 400; font-size: 12px; cursor: default;"><tspan x="14" dy="0">4</tspan></text><text x="14" y="287" text-anchor="end" style="fill: rgb(118, 118, 118); font-family: 'Segoe UI', 'Helvetica Neue', 'Trebuchet MS', Verdana; font-weight: 400; font-size: 12px; cursor: default;"><tspan x="14" dy="0">6</tspan></text><text x="14" y="238" text-anchor="end" style="fill: rgb(118, 118, 118); font-family: 'Segoe UI', 'Helvetica Neue', 'Trebuchet MS', Verdana; font-weight: 400; font-size: 12px; cursor: default;"><tspan x="14" dy="0">8</tspan></text><text x="14" y="190" text-anchor="end" style="fill: rgb(118, 118, 118); font-family: 'Segoe UI', 'Helvetica Neue', 'Trebuchet MS', Verdana; font-weight: 400; font-size: 12px; cursor: default;"><tspan x="14" dy="0">10</tspan></text><text x="14" y="142" text-anchor="end" style="fill: rgb(118, 118, 118); font-family: 'Segoe UI', 'Helvetica Neue', 'Trebuchet MS', Verdana; font-weight: 400; font-size: 12px; cursor: default;"><tspan x="14" dy="0">12</tspan></text><text x="14" y="93" text-anchor="end" style="fill: rgb(118, 118, 118); font-family: 'Segoe UI', 'Helvetica Neue', 'Trebuchet MS', Verdana; font-weight: 400; font-size: 12px; cursor: default;"><tspan x="14" dy="0">14</tspan></text><text x="14" y="45" text-anchor="end" style="fill: rgb(118, 118, 118); font-family: 'Segoe UI', 'Helvetica Neue', 'Trebuchet MS', Verdana; font-weight: 400; font-size: 12px; cursor: default;"><tspan x="14" dy="0">16</tspan></text></g><g class="dxc-line"></g><g class="dxc-title"></g></g></g><g class="dxc-constant-lines-group"><g class="dxc-h-constant-lines"></g><g class="dxc-v-constant-lines"></g></g><g class="dxc-strips-labels-group"><g class="dxc-axis-labels"></g><g class="dxc-axis-labels"></g></g><g class="dxc-border"></g><g class="dxc-series-group"><g class="dxc-series" transform="translate(0,0) scale(1,1)"><g class="dxc-elements" clip-path="url(#DevExpress_7)"></g><g class="dxc-markers" stroke-width="0" stroke="none" fill="#05ae93" r="0" inh="true" line-width="2"><rect x="76" y="187" width="243" height="241" rx="0" ry="0"></rect><rect x="423" y="213" width="243" height="215" rx="0" ry="0"></rect><rect x="770" y="238" width="243" height="190" rx="0" ry="0"></rect></g></g><g class="dxc-series" transform="translate(0,0) scale(1,1)"><g class="dxc-elements" clip-path="url(#DevExpress_7)"></g><g class="dxc-markers" stroke-width="0" stroke="none" fill="#7e8c85" r="0" inh="true" line-width="2"><rect x="76" y="72" width="243" height="115" rx="0" ry="0"></rect><rect x="423" y="126" width="243" height="87" rx="0" ry="0"></rect><rect x="770" y="167" width="243" height="71" rx="0" ry="0"></rect></g></g></g><g class="dxc-labels-group"><g class="dxc-series-labels" clip-path="url(#DevExpress_7)" opacity="1"><g><path stroke="#05ae93" stroke-width="1" d="M 0 0"></path><g x="76" y="183" transform="translate(121,25) rotate(0,76,183)"><rect x="56" y="172" width="40" height="22" rx="0" ry="0" fill="#05ae93" stroke-width="0" stroke="none" class=""></rect><text x="76" y="187" text-anchor="middle" style="fill: rgb(255, 255, 255); font-family: 'Segoe UI', 'Helvetica Neue', 'Trebuchet MS', Verdana; font-weight: 400; font-size: 12px;"><tspan x="76" dy="0">9,98</tspan></text></g></g><g><path stroke="#05ae93" stroke-width="1" d="M 0 0"></path><g x="423" y="209" transform="translate(121,25) rotate(0,423,209)"><rect x="403" y="198" width="40" height="22" rx="0" ry="0" fill="#05ae93" stroke-width="0" stroke="none" class=""></rect><text x="423" y="213" text-anchor="middle" style="fill: rgb(255, 255, 255); font-family: 'Segoe UI', 'Helvetica Neue', 'Trebuchet MS', Verdana; font-weight: 400; font-size: 12px;"><tspan x="423" dy="0">8,88</tspan></text></g></g><g><path stroke="#05ae93" stroke-width="1" d="M 0 0"></path><g x="770" y="234" transform="translate(121,25) rotate(0,770,234)"><rect x="750" y="223" width="40" height="22" rx="0" ry="0" fill="#05ae93" stroke-width="0" stroke="none" class=""></rect><text x="770" y="238" text-anchor="middle" style="fill: rgb(255, 255, 255); font-family: 'Segoe UI', 'Helvetica Neue', 'Trebuchet MS', Verdana; font-weight: 400; font-size: 12px;"><tspan x="770" dy="0">7,87</tspan></text></g></g></g><g class="dxc-series-labels" clip-path="url(#DevExpress_7)" opacity="1"><g><path stroke="#7e8c85" stroke-width="1" d="M 0 0"></path><g x="76" y="68" transform="translate(121,25) rotate(0,76,68)"><rect x="56" y="57" width="40" height="22" rx="0" ry="0" fill="#7e8c85" stroke-width="0" stroke="none" class=""></rect><text x="76" y="72" text-anchor="middle" style="fill: rgb(255, 255, 255); font-family: 'Segoe UI', 'Helvetica Neue', 'Trebuchet MS', Verdana; font-weight: 400; font-size: 12px;"><tspan x="76" dy="0">4,75</tspan></text></g></g><g><path stroke="#7e8c85" stroke-width="1" d="M 0 0"></path><g x="423" y="122" transform="translate(121,25) rotate(0,423,122)"><rect x="403" y="111" width="40" height="22" rx="0" ry="0" fill="#7e8c85" stroke-width="0" stroke="none" class=""></rect><text x="423" y="126" text-anchor="middle" style="fill: rgb(255, 255, 255); font-family: 'Segoe UI', 'Helvetica Neue', 'Trebuchet MS', Verdana; font-weight: 400; font-size: 12px;"><tspan x="423" dy="0">3,61</tspan></text></g></g><g><path stroke="#7e8c85" stroke-width="1" d="M 0 0"></path><g x="770" y="163" transform="translate(121,25) rotate(0,770,163)"><rect x="750" y="152" width="40" height="22" rx="0" ry="0" fill="#7e8c85" stroke-width="0" stroke="none" class=""></rect><text x="770" y="167" text-anchor="middle" style="fill: rgb(255, 255, 255); font-family: 'Segoe UI', 'Helvetica Neue', 'Trebuchet MS', Verdana; font-weight: 400; font-size: 12px;"><tspan x="770" dy="0">2,90</tspan></text></g></g></g></g><g class="dxc-crosshair-cursor"></g><g class="dxc-legend" transform="translate(436,462)" clip-path="url(#DevExpress_6)"><g><g class="dxc-item" transform="translate(33,0)"><rect x="0" y="0" width="12" height="12" rx="0" ry="0" fill="#05ae93"></rect><text x="6" y="25" text-anchor="middle" style="fill: rgb(118, 118, 118); font-family: 'Segoe UI', 'Helvetica Neue', 'Trebuchet MS', Verdana; font-weight: 400; font-size: 12px; cursor: default;"><tspan x="6" dy="0">DEC Acidental</tspan></text></g><g class="dxc-item" transform="translate(140,0)"><rect x="0" y="0" width="12" height="12" rx="0" ry="0" fill="#7e8c85"></rect><text x="6" y="25" text-anchor="middle" style="fill: rgb(118, 118, 118); font-family: 'Segoe UI', 'Helvetica Neue', 'Trebuchet MS', Verdana; font-weight: 400; font-size: 12px; cursor: default;"><tspan x="6" dy="0">DEC Programado</tspan></text></g></g><g class="dxc-legend-trackers" stroke="none" fill="grey" opacity="0.0001" transform="translate(0,0)"><rect x="-10" y="-4" width="98" height="36" rx="0" ry="0"></rect><rect x="88" y="-4" width="116" height="36" rx="0" ry="0"></rect></g></g><g class="dxc-tooltip"><path fill="#000000" stroke="none" opacity="0.1" d="M 0 0" visibility="hidden"></path><path d="M 0 0 Z" visibility="hidden"></path><text x="0" y="0" text-anchor="middle" visibility="hidden" style="font-family: 'Segoe UI Light', 'Helvetica Neue Light', 'Segoe UI', 'Helvetica Neue', 'Trebuchet MS', Verdana; font-weight: 200; font-size: 26px; fill: rgb(255, 255, 255); cursor: default;"><tspan x="0" dy="0">0</tspan></text></g><g class="dxc-trackers" opacity="0.0001"><g class="dxc-crosshair-trackers" stroke="none" fill="grey"></g><g class="dxc-series-trackers"><g class="dxc-pane-tracker"></g></g><g class="dxc-markers-trackers" stroke="none" fill="grey"><g class="dxc-pane-tracker" clip-path="url(#DevExpress_7)"><rect x="76" y="187" width="243" height="241" rx="0" ry="0"></rect><rect x="423" y="213" width="243" height="215" rx="0" ry="0"></rect><rect x="770" y="238" width="243" height="190" rx="0" ry="0"></rect><rect x="76" y="72" width="243" height="115" rx="0" ry="0"></rect><rect x="423" y="126" width="243" height="87" rx="0" ry="0"></rect><rect x="770" y="167" width="243" height="71" rx="0" ry="0"></rect></g></g></g></svg>